<?xml version="1.0" standalone="no"?>
<!DOCTYPE svg PUBLIC "-//W3C//DTD SVG 20010904//EN"
 "http://www.w3.org/TR/2001/REC-SVG-20010904/DTD/svg10.dtd">
<svg version="1.0" xmlns="http://www.w3.org/2000/svg"
 width="256.000000pt" height="256.000000pt" viewBox="0 0 256.000000 256.000000"
 preserveAspectRatio="xMidYMid meet">

<g transform="translate(0.000000,256.000000) scale(0.100000,-0.100000)"
fill="#000000" stroke="none">
<path d="M1428 2010 c12 -5 22 -15 22 -21 0 -7 3 -9 6 -6 10 10 -16 37 -35 36
-11 0 -9 -3 7 -9z"/>
<path d="M1102 1905 c-2 -88 6 -115 32 -115 5 0 2 6 -7 13 -13 9 -17 32 -20
102 l-3 90 -2 -90z"/>
<path d="M1208 1945 c-10 -21 -8 -30 9 -53 11 -15 32 -34 47 -42 26 -15 28
-14 62 23 38 41 42 72 12 91 -13 8 -23 8 -36 -1 -12 -7 -24 -8 -33 -2 -25 16
-49 9 -61 -16z"/>
<path d="M1438 1808 c-10 -10 -14 -18 -9 -18 10 0 36 29 30 34 -2 1 -12 -6
-21 -16z"/>
<path d="M1255 1770 c10 -11 20 -20 23 -20 3 0 -3 9 -13 20 -10 11 -20 20 -23
20 -3 0 3 -9 13 -20z"/>
<path d="M1300 1775 c-20 -24 -6 -28 15 -5 10 11 13 20 8 20 -6 0 -16 -7 -23
-15z"/>
<path d="M1453 570 c0 -36 2 -50 4 -32 2 17 2 47 0 65 -2 17 -4 3 -4 -33z"/>
<path d="M1649 598 c0 -18 -2 -43 -3 -55 -2 -13 1 -23 6 -23 4 0 8 25 8 55 0
58 -9 78 -11 23z"/>
<path d="M836 597 c3 -10 9 -15 12 -12 3 3 0 11 -7 18 -10 9 -11 8 -5 -6z"/>
<path d="M1186 573 c2 -12 0 -25 -6 -28 -5 -3 -10 -14 -9 -23 0 -12 3 -10 10
7 8 20 12 21 25 11 12 -11 12 -15 2 -21 -7 -5 -8 -9 -3 -9 16 0 31 14 39 35 6
16 5 18 -5 8 -21 -21 -31 -15 -26 15 2 15 2 21 0 15 -3 -7 -8 -13 -13 -13 -5
0 -10 6 -13 13 -2 6 -2 2 -1 -10z"/>
<path d="M800 550 c0 -22 3 -40 8 -40 4 0 6 18 4 40 -2 22 -6 40 -8 40 -2 0
-4 -18 -4 -40z"/>
<path d="M1345 580 c-4 -6 -2 -16 3 -23 5 -7 12 -21 15 -32 5 -20 5 -20 6 1 0
11 -5 26 -11 32 -10 10 -10 15 2 22 9 6 10 10 3 10 -6 0 -15 -5 -18 -10z"/>
<path d="M1537 579 c7 -7 15 -10 18 -7 3 3 -2 9 -12 12 -14 6 -15 5 -6 -5z"/>
<path d="M1745 580 c-4 -6 -1 -17 5 -25 7 -8 9 -23 6 -32 -6 -15 -5 -16 6 -5
10 10 10 16 0 33 -7 11 -10 24 -7 29 4 6 4 10 1 10 -3 0 -8 -5 -11 -10z"/>
<path d="M937 573 c-9 -9 -9 -51 1 -56 4 -3 7 10 7 29 0 19 0 34 -1 34 0 0 -4
-3 -7 -7z"/>
<path d="M977 573 c-4 -3 -7 -11 -7 -17 0 -6 5 -5 12 2 6 6 9 14 7 17 -3 3 -9
2 -12 -2z"/>
<path d="M1517 559 c4 -13 8 -18 11 -10 2 7 -1 18 -6 23 -8 8 -9 4 -5 -13z"/>
<path d="M1580 550 c0 -16 -5 -30 -11 -30 -6 0 -9 7 -5 15 3 8 1 15 -5 15 -17
0 -5 -35 14 -38 14 -3 17 4 17 32 0 20 -2 36 -5 36 -3 0 -5 -13 -5 -30z"/>
<path d="M841 543 c-10 -26 -10 -27 4 -9 8 11 15 23 15 28 0 15 -7 8 -19 -19z"/>
<path d="M874 555 c-3 -8 -4 -20 -2 -27 3 -7 7 -1 10 15 6 29 1 36 -8 12z"/>
<path d="M1050 562 c0 -6 5 -14 11 -17 6 -4 8 -14 5 -22 -3 -8 -1 -11 4 -8 15
9 12 31 -5 45 -9 8 -15 9 -15 2z"/>
<path d="M1420 545 c0 -27 -16 -34 -23 -10 -4 11 -4 10 -3 -2 1 -10 9 -19 19
-21 13 -3 17 3 17 27 0 17 -2 31 -5 31 -3 0 -5 -11 -5 -25z"/>
<path d="M1481 560 c0 -8 4 -22 9 -30 12 -18 12 -2 0 25 -6 13 -9 15 -9 5z"/>
<path d="M1706 557 c3 -10 9 -15 12 -12 3 3 0 11 -7 18 -10 9 -11 8 -5 -6z"/>
<path d="M898 537 c-3 -19 -2 -25 4 -19 6 6 8 18 6 28 -3 14 -5 12 -10 -9z"/>
<path d="M1613 545 c-3 -9 -3 -18 -1 -21 3 -3 8 4 11 16 6 23 -1 27 -10 5z"/>
<path d="M1674 549 c-3 -6 0 -18 9 -26 10 -10 17 -12 22 -4 4 7 1 10 -7 9 -7
-2 -12 5 -12 15 2 20 -2 22 -12 6z"/>
<path d="M1470 500 c0 -11 4 -20 9 -20 5 0 7 9 4 20 -3 11 -7 20 -9 20 -2 0
-4 -9 -4 -20z"/>
</g>
</svg>
